<svg width="16" height="16" viewBox="0 0 16 16" fill="none" xmlns="http://www.w3.org/2000/svg">
<g clip-path="url(#clip0_7689_9762)">
<mask id="path-1-inside-1_7689_9762" fill="white">
<path d="M15.9198 4.70745L14.7885 3.57608L7.19636 5.51132L4.08509 2.40005C3.61557 1.93053 2.83761 1.95048 2.34338 2.44471C1.84915 2.93894 1.8292 3.71691 2.29872 4.18642L5.40999 7.29769L3.47475 14.8898L4.60612 16.0212L7.95557 9.84328L11.0668 12.9545L10.7245 14.994L11.573 15.8425L13.0914 13.1927L15.7412 11.6743L14.8927 10.8258L12.8532 11.1682L9.74195 8.0569L15.9198 4.70745Z"/>
</mask>
<path d="M15.9198 4.70745L14.7885 3.57608L7.19636 5.51132L4.08509 2.40005C3.61557 1.93053 2.83761 1.95048 2.34338 2.44471C1.84915 2.93894 1.8292 3.71691 2.29872 4.18642L5.40999 7.29769L3.47475 14.8898L4.60612 16.0212L7.95557 9.84328L11.0668 12.9545L10.7245 14.994L11.573 15.8425L13.0914 13.1927L15.7412 11.6743L14.8927 10.8258L12.8532 11.1682L9.74195 8.0569L15.9198 4.70745Z" fill="#757575"/>
<path d="M15.9198 4.70745L19.0211 10.4277L26.6863 6.27186L20.5209 0.106412L15.9198 4.70745ZM14.7885 3.57608L19.3895 -1.02496L16.7704 -3.64404L13.1812 -2.72915L14.7885 3.57608ZM7.19636 5.51132L2.59532 10.1124L5.21441 12.7314L8.80358 11.8166L7.19636 5.51132ZM5.40999 7.29769L11.7152 8.90491L12.6301 5.31574L10.011 2.69666L5.40999 7.29769ZM3.47475 14.8898L-2.83049 13.2826L-3.74537 16.8717L-1.12629 19.4908L3.47475 14.8898ZM4.60612 16.0212L0.00508026 20.6222L6.17053 26.7876L10.3263 19.1225L4.60612 16.0212ZM7.95557 9.84328L12.5566 5.24224L6.39116 -0.923206L2.23535 6.74195L7.95557 9.84328ZM11.0668 12.9545L17.4839 14.0319L18.0391 10.7247L15.6679 8.35351L11.0668 12.9545ZM10.7245 14.994L4.3074 13.9167L3.75219 17.2238L6.12341 19.595L10.7245 14.994ZM11.573 15.8425L6.97194 20.4436L12.9883 26.4599L17.2186 19.0777L11.573 15.8425ZM13.0914 13.1927L9.85627 7.54711L8.32389 8.42522L7.44578 9.9576L13.0914 13.1927ZM15.7412 11.6743L18.9763 17.3199L26.3586 13.0896L20.3422 7.07327L15.7412 11.6743ZM14.8927 10.8258L19.4937 6.22475L17.1225 3.85352L13.8153 4.40874L14.8927 10.8258ZM12.8532 11.1682L8.25218 15.7692L10.6234 18.1404L13.9305 17.5852L12.8532 11.1682ZM9.74195 8.0569L6.64062 2.33668L-1.02454 6.49249L5.14091 12.6579L9.74195 8.0569ZM20.5209 0.106412L19.3895 -1.02496L10.1874 8.17712L11.3188 9.30849L20.5209 0.106412ZM13.1812 -2.72915L5.58915 -0.793914L8.80358 11.8166L16.3957 9.88131L13.1812 -2.72915ZM11.7974 0.910281L8.68613 -2.20099L-0.515945 7.00109L2.59532 10.1124L11.7974 0.910281ZM8.68613 -2.20099C5.456 -5.43113 0.552418 -4.96641 -2.25766 -2.15633L6.94442 7.04575C5.1228 8.86736 1.77515 9.29219 -0.515945 7.00109L8.68613 -2.20099ZM-2.25766 -2.15633C-5.06774 0.653748 -5.53246 5.55733 -2.30232 8.78746L6.89976 -0.414614C9.19085 1.87648 8.76603 5.22413 6.94442 7.04575L-2.25766 -2.15633ZM-2.30232 8.78746L0.808949 11.8987L10.011 2.69666L6.89976 -0.414614L-2.30232 8.78746ZM-0.895245 5.69048L-2.83049 13.2826L9.77998 16.497L11.7152 8.90491L-0.895245 5.69048ZM-1.12629 19.4908L0.00508026 20.6222L9.20716 11.4201L8.07579 10.2887L-1.12629 19.4908ZM10.3263 19.1225L13.6758 12.9446L2.23535 6.74195L-1.1141 12.9198L10.3263 19.1225ZM3.35453 14.4443L6.4658 17.5556L15.6679 8.35351L12.5566 5.24224L3.35453 14.4443ZM4.64979 11.8772L4.3074 13.9167L17.1415 16.0713L17.4839 14.0319L4.64979 11.8772ZM6.12341 19.595L6.97194 20.4436L16.174 11.2415L15.3255 10.393L6.12341 19.595ZM17.2186 19.0777L18.737 16.4279L7.44578 9.9576L5.92736 12.6074L17.2186 19.0777ZM16.3265 18.8384L18.9763 17.3199L12.5061 6.02869L9.85627 7.54711L16.3265 18.8384ZM20.3422 7.07327L19.4937 6.22475L10.2916 15.4268L11.1402 16.2754L20.3422 7.07327ZM13.8153 4.40874L11.7759 4.75113L13.9305 17.5852L15.97 17.2428L13.8153 4.40874ZM17.4543 6.56713L14.343 3.45587L5.14091 12.6579L8.25218 15.7692L17.4543 6.56713ZM12.8433 13.7771L19.0211 10.4277L12.8185 -1.01277L6.64062 2.33668L12.8433 13.7771Z" fill="#757575" mask="url(#path-1-inside-1_7689_9762)"/>
</g>
<defs>
<clipPath id="clip0_7689_9762">
<rect width="16" height="16" fill="white"/>
</clipPath>
</defs>
</svg>
